/* XPM */
static char const *ball[] = {
/* columns rows colors chars-per-pixel */
"50 50 251 2 ",
"   c #000000",
".  c #010101",
"X  c #020202",
"o  c #030303",
"O  c #040404",
"+  c #030303",
"@  c #060606",
"#  c #070707",
"$  c #030303",
"%  c #090909",
"&  c #030303",
"*  c #0B0B0B",
"=  c #0C0C0C",
"-  c #030303",
";  c #0E0E0E",
":  c #030303",
">  c #101010",
",  c #111111",
"<  c #030303",
"1  c #131313",
"2  c #030303",
"3  c #151515",
"4  c #161616",
"5  c #030303",
"6  c #191919",
"7  c #030303",
"8  c #1B1B1B",
"9  c #030303",
"0  c #1D1D1D",
"q  c #1E1E1E",
"w  c #030303",
"e  c #202020",
"r  c #030303",
"t  c #222222",
"y  c #232323",
"u  c #030303",
"i  c #030303",
"p  c #272727",
"a  c #282828",
"s  c #030303",
"d  c #2A2A2A",
"f  c #030303",
"g  c #2D2D2D",
"h  c #030303",
"j  c #2F2F2F",
"k  c #030303",
"l  c #313131",
"z  c #323232",
"x  c #030303",
"c  c #343434",
"v  c #353535",
"b  c #030303",
"n  c #373737",
"m  c #030303",
"M  c #393939",
"N  c #3A3A3A",
"B  c #030303",
"V  c #3C3C3C",
"C  c #030303",
"Z  c #3E3E3E",
"A  c #3F3F3F",
"S  c #030303",
"D  c #414141",
"F  c #030303",
"G  c #434343",
"H  c #030303",
"J  c #464646",
"K  c #030303",
"L  c #484848",
"P  c #494949",
"I  c #030303",
"U  c #4B4B4B",
"Y  c #4C4C4C",
"T  c #030303",
"R  c #4E4E4E",
"E  c #030303",
"W  c #505050",
"Q  c #535353",
"!  c #030303",
"~  c #555555",
"^  c #030303",
"/  c #585858",
"(  c #030303",
")  c #5A5A5A",
"_  c #5B5B5B",
"`  c #030303",
"'  c #5D5D5D",
"]  c #030303",
"[  c #030303",
"{  c #626262",
"}  c #030303",
"|  c #646464",
" . c #656565",
".. c #030303",
"X. c #676767",
"o. c #686868",
"O. c #6A6A6A",
"+. c #030303",
"@. c #6C6C6C",
"#. c #6D6D6D",
"$. c #030303",
"%. c #6F6F6F",
"&. c #030303",
"*. c #717171",
"=. c #727272",
"-. c #030303",
";. c #747474",
":. c #030303",
">. c #767676",
",. c #777777",
"<. c #030303",
"1. c #797979",
"2. c #030303",
"3. c #7B7B7B",
"4. c #7C7C7C",
"5. c #030303",
"6. c #030303",
"7. c #808080",
"8. c #818181",
"9. c #030303",
"0. c #838383",
"q. c #848484",
"w. c #030303",
"e. c #868686",
"r. c #030303",
"t. c #888888",
"y. c #898989",
"u. c #8B8B8B",
"i. c #030303",
"p. c #8D8D8D",
"a. c #8E8E8E",
"s. c #030303",
"d. c #909090",
"f. c #030303",
"g. c #929292",
"h. c #939393",
"j. c #030303",
"k. c #030303",
"l. c #979797",
"z. c #030303",
"x. c #9A9A9A",
"c. c #9A9B9B",
"v. c #9B9B9B",
"b. c #030303",
"n. c #9D9D9D",
"m. c #030303",
"M. c #9F9F9F",
"N. c #A0A0A0",
"B. c #030303",
"V. c #A2A2A2",
"C. c #030303",
"Z. c #A4A4A4",
"A. c #A5A5A5",
"S. c #030303",
"D. c #A7A7A7",
"F. c #030303",
"G. c #A9A9A9",
"H. c #AAAAAA",
"J. c #030303",
"K. c #ACACAC",
"L. c #030303",
"P. c #AEAEAE",
"I. c #AFAFAF",
"U. c #030303",
"Y. c #B1B1B1",
"T. c #B2B2B2",
"R. c #030303",
"E. c #B4B4B4",
"W. c #030303",
"Q. c #B6B6B6",
"!. c #B7B7B7",
"~. c #030303",
"^. c #B9B9B9",
"/. c #030303",
"(. c #BBBBBB",
"). c #BCBCBC",
"_. c #030303",
"`. c #030303",
"'. c #030303",
"]. c #C0C0C0",
"[. c #C1C1C1",
"{. c #030303",
"}. c #C3C3C3",
"|. c #030303",
" X c #C5C5C5",
".X c #C6C6C6",
"XX c #030303",
"oX c #C8C8C8",
"OX c #030303",
"+X c #CACACA",
"@X c #CBCBCB",
"#X c #030303",
"$X c #CCCCCD",
"%X c #CDCDCD",
"&X c #CECECE",
"*X c #030303",
"=X c #D0D0D0",
"-X c #030303",
";X c #D2D2D2",
":X c #030303",
">X c #030303",
",X c #D5D5D5",
"<X c #030303",
"1X c #D7D7D7",
"2X c #D8D8D8",
"3X c #030303",
"4X c #DADADA",
"5X c #030303",
"6X c #030303",
"7X c #DDDDDD",
"8X c #030303",
"9X c #DEDFDF",
"0X c #DFDFDF",
"qX c #DFE0E0",
"wX c #030303",
"eX c #E1E1E1",
"rX c #E2E2E2",
"tX c #030303",
"yX c #E4E4E4",
"uX c #030303",
"iX c #E6E6E6",
"pX c #E7E7E7",
"aX c #030303",
"sX c #E9E9E9",
"dX c #EAEAEA",
"fX c #030303",
"gX c #ECECEC",
"hX c #ECECED",
"jX c #030303",
"kX c #EEEEEE",
"lX c #EFEFEF",
"zX c #030303",
"xX c #F1F1F1",
"cX c #F1F2F2",
"vX c #030303",
"bX c #F3F3F3",
"nX c #F3F3F4",
"mX c #F4F4F4",
"MX c #030303",
"NX c #F5F6F6",
"BX c #F6F6F6",
"VX c #030303",
"CX c #F8F8F8",
"ZX c #F9F9F9",
"AX c #030303",
"SX c #FBFBFB",
"DX c #030303",
"FX c #FDFDFD",
"GX c #FEFEFE",
"HX c #FFFFFF",
"JX c #000000",
/* pixels */
"JXJXJXJXJXJXJXJXJXJXJXJXJXJXJXJXJXJX;X-X#XoX X|. X X|. XXX@X%XJXJXJXJXJXJXJXJXJXJXJXJXJXJXJXJXJXJXJX",
"JXJXJXJXJXJXJXJXJXJXJXJXJXJXJXU.]. X}.XX#X=X:X,X,X,X>X;X*XOX|.[.|. X}.JXJXJXJXJXJXJXJXJXJXJXJXJXJXJX",
"JXJXJXJXJXJXJXJXJXJXJXJXJX>.E  .G.;X3X0XtXiXaXsXdXsXaXpXyXeX5X<X%XW.k.Q.&XJXJXJXJXJXJXJXJXJXJXJXJXJX",
"JXJXJXJXJXJXJXJXJXJXJXq.I t 2 R I.yXfXlXvXbXMXMXBXBXMXmXvXxXjXsXeX+Xx.!.`.XX>XJXJXJXJXJXJXJXJXJXJXJX",
"JXJXJXJXJXJXJXJXJXC.' d 1 > 1 I G.wXpXkXmXZXSXDXFXDXDXSXAXCXmXlXiX&XD.#X-X.X`.+XJXJXJXJXJXJXJXJXJXJX",
"JXJXJXJXJXJXJXJXp.H 8 , < 7 f _ x.`.|.#X<XeXjXVXFXFXZXvXaX5X#X'.U.n.d.+X0X4X#X`..X5XJXJXJXJXJXJXJXJX",
"JXJXJXJXJXJXJX<.c 4 , 3 i Y w.^.-X,X=XOX_.E.`.;XyXrX$XI.u.X.P b d u z 6.oXrX8X;X}.].JXJXJXJXJXJXJXJX",
"JXJXJXJXJXJX;.d < , 5 l $.E.tXBXAXSXAXZXMXsX:X).C.r.! f 3 & + o X X + 9 @..XyXeX>X X{.,XJXJXJXJXJXJX",
"JXJXJXJXJXy.j 2 , 5 n 8.%XxXSXGXGXHXHXGXGXFXZXgXF.n & o .             X 5 $.+XaXrX>X|.[.JXJXJXJXJXJX",
"JXJXJXJXf.n 4 , 4 M p.>XMXFXGXHXHXHXHXHXHXHXGXAX{.F o                   . 5 :.=XdXrX:X{.|.JXJXJXJXJX",
"JXJXJXL.P 5 , 3 l r.1XVXGXHXHXHXHXHXHXHXHXHXHXFX-X( O                     . 0 y.7XfXwX-X_.XXJXJXJXJX",
"JXJXJXo.y 5 5 s 1.*XBXGXHXHXHXHXHXHXHXHXHXHXHXFX7X%.#                       o l V.yXsX7X@X_.+XJXJXJX",
"JXJXD.[ Q Q H ..|.bXGXHXHXHXHXHXHXHXHXHXHXHXHXGXiXe.-                         # E ~.tXeX<X|.].JXJXJX",
"JXJXE.R.[.OXY.D.uXDXHXHXHXHXHXHXHXHXHXHXHXHXHXGXjXz.4 .                       X d 0.Y.`.@XOX).{.JXJX",
"JX#X|.,XpXlX2X~.dXGXHXHXHXHXHXHXHXHXHXHXHXHXHXGXbXH.t .                       = _ ^.>X}.P.J.G.A.JXJX",
"JX X%XeXlXBXeX!.aXFXHXHXHXHXHXHXHXHXHXHXHXHXHXGXBX!.g X                     o z M.yXvXdX3X(.d. .6.JX",
"2X{.,XaXmXAXsXQ.uXFXHXHXHXHXHXHXHXHXHXHXHXHXHXGXBX'.Z $ X .               . 4 ;.-XmXVXMXlX0XI.^ ~ JX",
"@XoX7XjXCXDXzX^.eXSXHXHXHXHXHXHXHXHXHXHXHXHXGXVXeXQ.t.} Z w * X           % T Q.kXCXVXBXbXfX=X:.K JX",
"{.*XtXxXAXFXmX(.3XCXGXHXHXHXHXHXHXHXHXHXGXFXMX7X[.XX4X,X].B.4.W p - X   O g k.eXVXCXVXBXmXkXwXx.T =.",
"].,XpXMXDXGXCX{.%XbXGXHXHXHXHXHXHXHXHXHXFXvX,X].%XfXAXFXSXvXyX%XJ.6.H 8 8 :.-XMXZXCXVXBXmXzXiX^.{ } ",
"}.2XfXVXFXGXAX*X'.jXGXHXHXHXHXHXHXHXGXFXzX:X'.=XjXSXGXHXHXGXGXSXbXeX].f.+.Q.jXZXZXCXVXBXmXxXsX&X3.` ",
".X6XkXCXFXGXFXrXU.5XVXSXFXGXGXHXHXGXDXkX*X].>XxXDXGXHXHXHXHXHXHXGXFXZXaXT.+XcXAXZXVXBXMXmXvXfX4Xj.[ ",
"OX0XlXZXFXGXDX8X0.2.z.!.-XuXmXSXFXFXlX=X[.,XvXFXGXHXHXHXHXHXHXHXHXHXFXZX=X[.dXZXCXVXBXMXmXvXgX0XF.O.",
"@XwXzXZXFXFXbXL.G w a C / :.k.(.2XyX-X[.,XmXGXGXHXHXHXHXHXHXHXHXHXGXGXSXtXW.eXVXCXVXBXMXmXvXhXeXQ.,.",
"%XeXzXZXDXZX>X| 4 .     + : e B _ 9.H.:XmXGXHXHXHXHXHXHXHXHXHXHXHXGXFXDXlXR.,XmXVXBXMXmXbXvXjXrX].e.",
"%XeXzXZXSXkXN.k +             . # i y.pXGXHXHXHXHXHXHXHXHXHXHXHXGXFXFXSXmX_.OXjXVXBXMXmXbXxXjXrX}.i.",
"+XwXzXCXVX<X[ <                   - $.rXGXHXHXHXHXHXHXHXHXHXHXGXFXFXDXSXVX&X].iXBXNXmXmXbXxXgXeX[.h.",
"oX0XkXBXzXI.x @                   + ^ -XFXHXHXHXHXHXHXHXHXHXGXFXFXDXSXAXCX7X(.eXMXMXmXbXbXxXfX8X/.l.",
"|.6XgXMXiX8.6 .                   . A ^.SXHXHXHXHXHXHXGXGXGXFXFXDXSXSXAXCXpX!.5XmXMXmXbXvXzXdX1XY.n.",
"W.<XaXzX<X( =                       a x.VXGXHXHXHXGXGXGXGXFXFXDXSXSXAXZXCXgXE.,XvXmXbXvXxXlXpXOXS.D.",
"s.^.&X,X~.A $                       4 5.jXGXGXGXGXGXGXFXFXDXDXSXAXAXZXCXVXkXY.+XjXbXbXvXxXjXwX^.m.!.",
"%.l.K.E.C.D $                       & [ 8XFXGXFXFXFXFXDXDXSXSXAXZXZXCXVXmX8Xa.p.`.8XjXzXlXsX&XP.Z.].",
"g.~.&X6X3X8.6 .                     o J XXSXFXFXDXDXDXSXSXAXAXZXZXCXVXMXtXV.F t L 9.Q.<XiX6X/.G.Q.|.",
"I./.,XiXgXOXT &                       h F.CXDXDXSXSXSXAXAXZXZXCXCXVXmXyXD.K : . o > b *.G.W.Y.E.].JX",
"#XQ.%XwXgXsXN.g o                     q r.dXZXSXAXAXAXZXZXCXCXVXVXmXtXJ.T > .       X : N 0.Q._.}.JX",
"JX). X3XpXzX8X<.8 X               O > k ,.}.rXkXMXCXZXCXCXVXVXBXvX0XS.U , .         X $ a 7.`._. XJX",
"JX@X`.*XeXgXlX;X+.7 X       . + , g _ l.].).E.[.<XiXjXvXMXBXMXkX,Xj.S ; .           + = B d.).].JXJX",
"JXJX).|.1XiXlXlX%X..6 X X # 3 l { B.*XdXbXlX9X.XE.T.].-X8XuXtX X6.k & .           o % 1 ! M.`. XJXJX",
"JXJX*X).@X7XaXzXlX&X-.p w S ;.K.:XdXbXVXVXVXMXzXsX6X@X`.R.P.N.) 0 # .           X # - r $.H.}.JXJXJX",
"JXJXJX].[.=X0XdXzXzX3Xi.a.(.5XgXvXMXBXBXBXBXBXBXMXbXzXgXpX2XG.j +             . # = < m r.!.@XJXJXJX",
"JXJXJXJX).}.>XeXdXzXjX'.XXiXvXmXMXMXMXMXMXMXMXMXMXmXmXbXbXlX*XT @           X @ = > 0 ` M..XJXJXJXJX",
"JXJXJXJX=X/. X,XeXdXjX+X.XiXnXmXmXmXmXmXmXmXmXmXmXbXbXbXbXvXwX1.-         X # = > 1 v 4.(.JXJXJXJXJX",
"JXJXJXJXJXoX(. X,XeXaX-X_.8XvXbXbXbXbXbXbXbXbXbXbXvXvXvXvXxXaXm.6 .     o $ = , 2 e ~ v.JXJXJXJXJXJX",
"JXJXJXJXJXJX#X_. X:X8X2XW.:XlXxXvXvXvXvXvXvXvXvXvXxXxXxXxXxXgX(.j O X + & : 2 9 v ] g.|.JXJXJXJXJXJX",
"JXJXJXJXJXJXJXOX~.{.*X<XE.}.iXlXzXxXxXxXxXxXxXxXxXzXzXzXzXzXjX*XW , - < 6 p V ] 0.S.%XJXJXJXJXJXJXJX",
"JXJXJXJXJXJXJXJX*XW.!.{.W.J.&XpXfXjXkXlXzXzXzXzXzXlXlXlXkXjXdX>X6.T W ] &.9.h.V._.<XJXJXJXJXJXJXJXJX",
"JXJXJXJXJXJXJXJXJX-XM.4.O._ 9.].6XuXaXdXgXjXjXjXjXjXjXgXfXiX2X^.K.Y.R.R.R.T.!.@XJXJXJXJXJXJXJXJXJXJX",
"JXJXJXJXJXJXJXJXJXJXJXb._ f f ~ p.).,XqXtXuXiXpXpXiXiXrX3X.XR.Q. X+X.X_.(.XX<XJXJXJXJXJXJXJXJXJXJXJX",
"JXJXJXJXJXJXJXJXJXJXJXJXJX:.H p h W >.c.Q.XX;X1X<X=X.X~.L.K.T.).]._.).{.%XJXJXJXJXJXJXJXJXJXJXJXJXJX",
"JXJXJXJXJXJXJXJXJXJXJXJXJXJXJXy.X.I B B P _ #.7.l.V.N.Z.D.I.W.(.[.OX-XJXJXJXJXJXJXJXJXJXJXJXJXJXJXJX"
};
